<svg width="50" height="50" viewBox="0 0 50 50" fill="none" xmlns="http://www.w3.org/2000/svg">
  <circle cx="25" cy="25" r="25" fill="#FF6B35"/>
  <path d="M34.5 30.2L31.2 28.5C30.9 28.3 30.5 28.3 30.2 28.4L27.8 29.8C27.2 29.5 25.9 28.8 24.5 27.4C23.1 26 22.4 24.7 22.1 24.1L23.5 21.7C23.7 21.4 23.7 21 23.5 20.7L21.8 17.4C21.6 17 21.2 16.9 20.8 17L17.5 18.5C17.1 18.7 16.9 19.1 17 19.5C17.3 21.3 18.2 25.5 21.7 29C25.2 32.5 29.4 33.4 31.2 33.7C31.6 33.8 32 33.6 32.2 33.2L33.7 29.9C33.9 29.5 33.8 29.1 33.4 28.9L34.5 30.2Z" fill="white"/>
</svg>
