<svg width="50" height="50" viewBox="0 0 50 50" fill="none" xmlns="http://www.w3.org/2000/svg">
  <circle cx="25" cy="25" r="25" fill="#FF6B35"/>
  <path d="M35.5 14.3C33.7 12.5 31.3 11.2 28.7 10.6C26.1 10 23.4 10 20.8 10.6C18.2 11.2 15.8 12.5 14 14.3C12.2 16.1 10.9 18.5 10.3 21.1C9.7 23.7 9.7 26.4 10.3 29C10.9 31.6 12.2 34 14 35.8L10 40L14.2 39.7C16.8 41.3 19.8 42.2 22.9 42.2C26 42.2 29 41.3 31.6 39.7C34.2 38.1 36.3 35.8 37.6 33.1C38.9 30.4 39.5 27.4 39.2 24.4C38.9 21.4 37.7 18.5 35.5 14.3ZM33.8 32.5C32.8 34.3 31.3 35.8 29.5 36.8C27.7 37.8 25.6 38.3 23.5 38.3C21.4 38.3 19.3 37.8 17.5 36.8L16.8 36.4L13.5 37.2L14.3 34L13.9 33.3C12.9 31.5 12.4 29.4 12.4 27.3C12.4 25.2 12.9 23.1 13.9 21.3C14.9 19.5 16.4 18 18.2 17C20 16 22.1 15.5 24.2 15.5C26.3 15.5 28.4 16 30.2 17C32 18 33.5 19.5 34.5 21.3C35.5 23.1 36 25.2 36 27.3C36 29.4 35.5 31.5 34.5 33.3L33.8 32.5Z" fill="white"/>
  <path d="M29.5 28.5C29.3 28.4 28.2 27.9 28 27.8C27.8 27.7 27.7 27.7 27.5 27.9C27.3 28.1 26.9 28.6 26.8 28.8C26.7 29 26.5 29 26.3 28.9C26.1 28.8 25.4 28.6 24.6 27.9C23.9 27.3 23.4 26.6 23.3 26.4C23.2 26.2 23.3 26.1 23.4 26C23.5 25.9 23.6 25.7 23.7 25.6C23.8 25.5 23.9 25.4 23.9 25.2C24 25 24 24.9 23.9 24.8C23.8 24.7 23.4 23.6 23.2 23.2C23 22.8 22.8 22.8 22.6 22.8H22.1C21.9 22.8 21.6 22.9 21.4 23.1C21.2 23.3 20.7 23.8 20.7 24.9C20.7 26 21.5 27.1 21.6 27.2C21.7 27.3 23.4 30 26 31C26.6 31.3 27.1 31.4 27.5 31.5C28.1 31.7 28.6 31.7 29 31.6C29.5 31.6 30.4 31.1 30.6 30.6C30.8 30.1 30.8 29.7 30.7 29.6C30.6 29.5 30.4 29.4 30.2 29.3L29.5 28.5Z" fill="white"/>
</svg>
